<?xml version="1.0" standalone="no"?>
<!DOCTYPE svg PUBLIC "-//W3C//DTD SVG 20010904//EN"
 "http://www.w3.org/TR/2001/REC-SVG-20010904/DTD/svg10.dtd">
<svg version="1.0" xmlns="http://www.w3.org/2000/svg"
 width="551.000000pt" height="563.000000pt" viewBox="0 0 551.000000 563.000000"
 preserveAspectRatio="xMidYMid meet">

<g transform="translate(0.000000,563.000000) scale(0.100000,-0.100000)"
fill="current" stroke="current">
<path d="M2395 5169 c-1009 -121 -1847 -855 -2101 -1839 -47 -185 -66 -324
-71 -546 -9 -332 21 -551 114 -839 254 -787 895 -1402 1688 -1620 246 -67 345
-80 655 -80 310 0 409 13 655 80 459 126 892 398 1194 750 215 250 364 502
469 795 101 284 142 524 142 842 0 288 -34 509 -120 768 -174 531 -511 977
-970 1285 -294 197 -615 326 -965 386 -138 24 -550 35 -690 18z m575 -83 c377
-48 709 -171 1017 -376 167 -111 260 -189 403 -337 366 -379 584 -832 656
-1363 19 -142 18 -458 -1 -607 -49 -372 -175 -710 -380 -1018 -99 -149 -166
-230 -293 -358 -392 -397 -868 -629 -1434 -698 -148 -18 -513 -7 -658 20 -511
93 -919 307 -1285 675 -279 281 -460 573 -580 941 -80 243 -115 470 -115 745
0 240 21 406 81 628 175 658 639 1221 1254 1522 229 113 494 193 740 225 139
18 455 18 595 1z"/>
<path d="M2850 4467 c-30 -15 -35 -37 -50 -192 -7 -66 -16 -140 -21 -165 -6
-25 -14 -63 -18 -85 -4 -22 -15 -56 -23 -75 -9 -19 -21 -46 -27 -60 -6 -14
-17 -34 -23 -45 -15 -22 -167 -175 -175 -175 -8 0 -103 -101 -103 -110 0 -5
-7 -21 -15 -37 -7 -15 -24 -50 -35 -78 -36 -83 -61 -139 -75 -165 -7 -14 -25
-50 -40 -80 -49 -102 -68 -135 -82 -143 -7 -4 -13 -14 -13 -21 0 -7 -9 -21
-20 -31 -11 -10 -20 -22 -20 -27 0 -13 -56 -68 -69 -68 -6 0 -11 -4 -11 -10 0
-13 -105 -60 -135 -60 l-25 0 0 -614 c0 -425 3 -617 11 -621 6 -4 38 -9 72
-12 34 -2 78 -10 97 -18 19 -7 64 -16 100 -19 36 -4 88 -13 115 -21 165 -44
439 -66 850 -68 310 -2 370 4 453 42 48 21 95 52 105 68 4 7 15 13 22 13 8 0
15 7 15 15 0 8 4 15 9 15 5 0 21 16 36 36 24 32 28 47 31 120 4 97 17 127 89
203 28 29 57 63 65 77 8 13 18 24 22 24 10 0 10 77 0 82 -12 5 -54 118 -59
158 -4 29 1 41 31 74 20 21 36 42 36 46 0 4 6 13 14 19 7 6 19 32 26 57 16 57
1 114 -40 154 -16 16 -32 40 -36 54 -7 28 12 96 27 96 5 0 9 8 9 18 0 11 9 27
20 37 33 30 41 80 23 134 -20 61 -48 114 -67 130 -9 8 -16 20 -16 27 0 8 -7
14 -15 14 -8 0 -15 4 -15 10 0 21 -78 59 -145 69 -116 19 -489 31 -583 19
-140 -18 -188 13 -162 104 6 18 10 46 10 61 0 16 7 35 15 43 8 8 19 33 25 54
6 22 15 40 20 40 5 0 13 12 16 28 4 15 15 39 25 54 11 14 19 32 19 40 0 8 4
18 9 24 15 14 51 114 62 169 33 166 33 155 1 315 -26 132 -133 235 -271 260
-66 12 -61 12 -91 -3z"/>
<path d="M1190 2887 c-50 -43 -50 -40 -50 -664 0 -602 3 -657 39 -671 9 -3 22
-12 29 -19 10 -10 66 -13 232 -13 210 0 220 1 253 23 20 12 38 31 41 42 8 27
7 1234 0 1262 -3 12 -22 31 -41 43 -32 19 -50 20 -256 20 -215 -1 -223 -1
-247 -23z"/>
</g>
</svg>
